<svg xmlns="http://www.w3.org/2000/svg" viewBox="0 0 600 600" role="img" aria-label="Dezentes Zahnrad-Wasserzeichen"><g fill="none" stroke="#4F8FC5" stroke-width="18" stroke-linecap="round" stroke-linejoin="round"><circle cx="300" cy="300" r="112"/><circle cx="300" cy="300" r="42"/><path d="M300 74v70"/><path d="M300 456v70"/><path d="M74 300h70"/><path d="M456 300h70"/><path d="M140 140l50 50"/><path d="M410 410l50 50"/><path d="M460 140l-50 50"/><path d="M190 410l-50 50"/><path d="M300 144c35 0 68 11 94 30"/><path d="M456 300c0 35-11 68-30 94"/><path d="M300 456c-35 0-68-11-94-30"/><path d="M144 300c0-35 11-68 30-94"/></g></svg>